<svg id="visual" viewBox="0 0 960 540" width="960" height="540" xmlns="http://www.w3.org/2000/svg" xmlns:xlink="http://www.w3.org/1999/xlink" version="1.1"><path d="M0 104L17.8 103C35.7 102 71.3 100 106.8 100C142.3 100 177.7 102 213.2 99.3C248.7 96.7 284.3 89.3 320 83C355.7 76.7 391.3 71.3 426.8 74C462.3 76.7 497.7 87.3 533.2 94.5C568.7 101.7 604.3 105.3 640 100C675.7 94.7 711.3 80.3 746.8 79.5C782.3 78.7 817.7 91.3 853.2 93.2C888.7 95 924.3 86 942.2 81.5L960 77L960 0L942.2 0C924.3 0 888.7 0 853.2 0C817.7 0 782.3 0 746.8 0C711.3 0 675.7 0 640 0C604.3 0 568.7 0 533.2 0C497.7 0 462.3 0 426.8 0C391.3 0 355.7 0 320 0C284.3 0 248.7 0 213.2 0C177.7 0 142.3 0 106.8 0C71.3 0 35.7 0 17.8 0L0 0Z" fill="#000d1b"></path><path d="M0 357L17.8 346.3C35.7 335.7 71.3 314.3 106.8 297.3C142.3 280.3 177.7 267.7 213.2 264C248.7 260.3 284.3 265.7 320 267.5C355.7 269.3 391.3 267.7 426.8 270.3C462.3 273 497.7 280 533.2 282.7C568.7 285.3 604.3 283.7 640 286.3C675.7 289 711.3 296 746.8 285.2C782.3 274.3 817.7 245.7 853.2 230.5C888.7 215.3 924.3 213.7 942.2 212.8L960 212L960 75L942.2 79.5C924.3 84 888.7 93 853.2 91.2C817.7 89.3 782.3 76.7 746.8 77.5C711.3 78.3 675.7 92.7 640 98C604.3 103.3 568.7 99.7 533.2 92.5C497.7 85.3 462.3 74.7 426.8 72C391.3 69.3 355.7 74.7 320 81C284.3 87.3 248.7 94.7 213.2 97.3C177.7 100 142.3 98 106.8 98C71.3 98 35.7 100 17.8 101L0 102Z" fill="#001020"></path><path d="M0 476L17.8 467C35.7 458 71.3 440 106.8 436.5C142.3 433 177.7 444 213.2 452.2C248.7 460.3 284.3 465.7 320 453.8C355.7 442 391.3 413 426.8 404C462.3 395 497.7 406 533.2 413.3C568.7 420.7 604.3 424.3 640 431.5C675.7 438.7 711.3 449.3 746.8 452.8C782.3 456.3 817.7 452.7 853.2 446.3C888.7 440 924.3 431 942.2 426.5L960 422L960 210L942.2 210.8C924.3 211.7 888.7 213.3 853.2 228.5C817.7 243.7 782.3 272.3 746.8 283.2C711.3 294 675.7 287 640 284.3C604.3 281.7 568.7 283.3 533.2 280.7C497.7 278 462.3 271 426.8 268.3C391.3 265.7 355.7 267.3 320 265.5C284.3 263.7 248.7 258.3 213.2 262C177.7 265.7 142.3 278.3 106.8 295.3C71.3 312.3 35.7 333.7 17.8 344.3L0 355Z" fill="#011e37"></path><path d="M0 541L17.8 541C35.7 541 71.3 541 106.8 541C142.3 541 177.7 541 213.2 541C248.7 541 284.3 541 320 541C355.7 541 391.3 541 426.8 541C462.3 541 497.7 541 533.2 541C568.7 541 604.3 541 640 541C675.7 541 711.3 541 746.8 541C782.3 541 817.7 541 853.2 541C888.7 541 924.3 541 942.2 541L960 541L960 420L942.2 424.5C924.3 429 888.7 438 853.2 444.3C817.7 450.7 782.3 454.3 746.8 450.8C711.3 447.3 675.7 436.7 640 429.5C604.3 422.3 568.7 418.7 533.2 411.3C497.7 404 462.3 393 426.8 402C391.3 411 355.7 440 320 451.8C284.3 463.7 248.7 458.3 213.2 450.2C177.7 442 142.3 431 106.8 434.5C71.3 438 35.7 456 17.8 465L0 474Z" fill="#003664"></path></svg>